{"title":"Se7en 1995 1080p BrRip x264 [Dual Audio] English-Hindi NimitMak ","uid":7747715,"size":1291229435,"categoryP":"video","categoryS":"hd___movies","magnet":"?xt=urn:btih:235507e8a9834e9b5162c4e345f9567131098f44&amp;dn=Se7en+1995+1080p+BrRip+x264+%5BDual+Audio%5D+English-Hindi+NimitMak+&amp;tr=udp%3A%2F%2Ftracker.openbittorrent.com%3A80&amp;tr=udp%3A%2F%2Fopen.demonii.com%3A1337&amp;tr=udp%3A%2F%2Ftracker.coppersurfer.tk%3A6969&amp;tr=udp%3A%2F%2Fexodus.desync.com%3A6969","seeders":5,"leechers":4,"uploader":"nimitmak","files":10,"time":1350817085,"description":"::General::\nComplete name: Se7en 1995 1080p BrRip x264 [Dual Audio] English-Hindi NimitMak SilverRG\nDirector: David Fincher\nFormat: MPEG-4\nFile size: 1.19 GiB\nDuration: 2h 6mn\nOverall Bitrate: 1347 Kbps\nLanguage: Dual Audio [English-Hindi]\nSub Title: Embedded + .srt (Can Be Turned Off)\nEncoded date: 2012-10-08\nWriting application: MeGui\nWriting library: x264 core 100 r1659 57b2e56\nEncoder: NimitMak\nSource: BrRip YIFY (Thanks),Audio (mjrocks91)\n\n\n\n::IMDB INFO::\nIMDB Link:http://www.imdb.com/title/tt0114369/\nIMDB Rating:8.7/10\nRelease Date:22 September 1995 (USA)\nGenre: Crime | Mystery | Thriller \nYouTube\n\n::Video::\nID: 1\nFormat: AVC\nFormat/Info: Advanced Video Codec\nFormat profile: &lt;a class=&quot;__cf_email__&quot; href=&quot;/cdn-cgi/l/email-protection&quot; data-cfemail=&quot;afe7c6c8c7efe39b819f&quot;&gt;[email&amp;#160;protected]&lt;/a&gt;&lt;script cf-hash='f9e31' type=&quot;text/javascript&quot;&gt;\n/* &lt;![CDATA[ */!function(){try{var t=&quot;currentScript&quot;in document?document.currentScript:function(){for(var t=document.getElementsByTagName(&quot;script&quot;),e=t.length;e--;)if(t[e].getAttribute(&quot;cf-hash&quot;))return t[e]}();if(t&amp;&amp;t.previousSibling){var e,r,n,i,c=t.previousSibling,a=c.getAttribute(&quot;data-cfemail&quot;);if(a){for(e=&quot;&quot;,r=parseInt(a.substr(0,2),16),n=2;a.length-n;n+=2)i=parseInt(a.substr(n,2),16)^r,e+=String.fromCharCode(i);e=document.createTextNode(e),c.parentNode.replaceChild(e,c)}}}catch(u){}}();/* ]]&gt; */&lt;/script&gt;\nFormat settings, CABAC: Yes\nFormat settings, ReFrames: 3 frames\nCodec ID: V_MPEG4/ISO/AVC\nNominal Bitrate: 1029 Kbps /25.0 Mbps(Max)\nWidth: 1920 pixels\nHeight: 800 pixels\nDisplay aspect ratio: 2.40:1\nFrame rate: 23.976 fps\nColor space: YUV\nChroma subsampling: 4:2:0\nBit depth: 8 bits\nScan type: Progressive\nWriting library: x264 core 100 r1659 57b2e56\n\n::Audio #1::\nID: 2\nFormat : AAC\nFormat/Info: Advanced Audio Codec\nFormat profile: HE-AAC / LC\nCodec ID: 40\nDuration : h 6mn\nBit rate mode: Variable\nBit rate: 91.9 Kbps\nMaximum bit rate: 109 Kbps\nChannel(s): 2 channels\nChannel positions: Front: L R\nSampling rate: 48.0 KHz / 24.0 KHz\nCompression mode: Lossy\nStream size: 83.3 MiB (7%)\nTitle: English - NimitMak SilverRG\nLanguage: English\n\n::Audio #2::\nID : 3\nFormat: AC-3\nFormat/Info: Audio Coding 3\nMode extension: CM (complete main)\nCodec ID: ac-3\nDuration: 2h 6mn\nBit rate mode: Constant\nBit rate: 224 Kbps\nChannel(s): 2 channels\nChannel positions: Front: L R\nSampling rate: 44.1 KHz\nBit depth: 16 bits\nCompression mode : ossy\nStream size: 203 MiB (17%)\nTitle: Hindi - NimitMak SilverRG\nLanguage: Hindi\n\n::Text #1::\nID: 4\nFormat: Timed text\nCodec ID: tx3g\nDuration: 2h 1mn\nBit rate mode : Variable\nBit rate: 52 bps\nStream size: 46.7 KiB (0%)\nTitle : English - NimitMak SilverRG\nLanguage : English\n\nScreens : \n &lt;a href=&quot;\nhttp://www.shotpix.com/images/14144259935426537615.jpg&quot; rel=&quot;nofollow&quot; target=&quot;_NEW&quot;&gt;\nhttp://www.shotpix.com/images/14144259935426537615.jpg&lt;/a&gt;","torrent":{"xt":"urn:btih:235507e8a9834e9b5162c4e345f9567131098f44","amp;dn":"Se7en+1995+1080p+BrRip+x264+%5BDual+Audio%5D+English-Hindi+NimitMak+","amp;tr":["udp%3A%2F%2Ftracker.openbittorrent.com%3A80","udp%3A%2F%2Fopen.demonii.com%3A1337","udp%3A%2F%2Ftracker.coppersurfer.tk%3A6969","udp%3A%2F%2Fexodus.desync.com%3A6969"],"infoHash":"235507e8a9834e9b5162c4e345f9567131098f44","infoHashBuffer":{"type":"Buffer","data":[35,85,7,232,169,131,78,155,81,98,196,227,69,249,86,113,49,9,143,68]},"announce":[],"urlList":[]}}